<?xml version="1.0" encoding="UTF-8"?>
<svg version="1.1" xmlns="http://www.w3.org/2000/svg" width="265" height="114">
  <rect width="100%" height="100%" fill="white"/>
  <path d="M0 0 C87.45 0 174.9 0 265 0 C265 37.62 265 75.24 265 114 C177.55 114 90.1 114 0 114 C0 76.38 0 38.76 0 0 Z " fill="#FDFDFE" transform="translate(0,0)"/>
  <path d="M0 0 C2.0625 0.4375 2.0625 0.4375 4 1 C4.19335938 2.10859375 4.38671875 3.2171875 4.5859375 4.359375 C4.84863489 5.82297476 5.11167367 7.28651327 5.375 8.75 C5.56449219 9.84441406 5.56449219 9.84441406 5.7578125 10.9609375 C6.41834074 14.5938428 7.07447662 17.8187005 9 21 C12.53599998 20.92928 15.1041863 20.80836985 17.80078125 18.375 C19.27675028 16.62779084 20.67266996 14.86215167 22 13 C22.7734375 14.2684375 22.7734375 14.2684375 23.5625 15.5625 C24.366875 16.366875 25.17125 17.17125 26 18 C30.26090222 17.92524733 32.44500111 17.36999926 36 15 C36.99 16.98 37.98 18.96 39 21 C42.6541016 20.79119419 43.90095632 20.09662798 46.5625 17.5 C49.4806973 13.71373135 51.24334765 9.41616513 53 5 C53.33 5 53.66 5 54 5 C54.13277344 5.91523437 54.26554687 6.83046875 54.40234375 7.7734375 C54.57894531 8.96195313 54.75554687 10.15046875 54.9375 11.375 C55.19853516 13.15003906 55.19853516 13.15003906 55.46484375 14.9609375 C55.83462786 17.90702381 55.83462786 17.90702381 57 20 C57.99 19.67 58.98 19.34 60 19 C61.14733087 16.08057202 61.14733087 16.08057202 62 12.625 C63.97905939 5.18703513 63.97905939 5.18703513 67 3 C67.66 3 68.32 3 69 3 C69.56475645 14.94355301 69.56475645 14.94355301 66 19 C65.13375 19.680625 64.2675 20.36125 63.375 21.0625 C60.89410371 23.08638908 60.33304577 23.89157277 60 27 C62.7412565 27.7555432 62.7412565 27.7555432 66 27 C67.43244902 25.2087294 67.43244902 25.2087294 68.6875 22.9375 C72.14881513 17.10403024 77.02787343 14.03485517 83 11 C83.66 11 84.32 11 85 11 C85.99 17.27 86.98 23.54 88 30 C88.99 30 89.98 30 91 30 C91.10957031 29.20078125 91.21914062 28.4015625 91.33203125 27.578125 C94.26154758 7.28586556 94.26154758 7.28586556 99 0 C100.98 0.495 100.98 0.495 103 1 C104.66666667 7.66666667 106.33333333 14.33333333 108 21 C112.12453946 21.30417775 112.12453946 21.30417775 115.8984375 19.90625 C116.38570312 19.4421875 116.87296875 18.978125 117.375 18.5 C118.24125 17.675 119.1075 16.85 120 16 C120.33 16.99 120.66 17.98 121 19 C125.40114397 18.49701212 127.71195019 16.91227269 131 14 C131.474375 14.969375 131.94875 15.93875 132.4375 16.9375 C133.70193947 19.80477437 133.70193947 19.80477437 135 21 C143.06560558 20.59671972 146.44983102 17.75573079 152 12 C152.33 15.63 152.66 19.26 153 23 C153.99 22.67 154.98 22.34 156 22 C156.97182581 19.40451401 157.77312471 16.91364622 158.5 14.25 C159.85084175 9.40439991 161.14207208 5.22042844 164 1 C165.48828125 2.05078125 165.48828125 2.05078125 167 4 C167.29296875 7.35546875 167.29296875 7.35546875 167.1875 11.1875 C167.14689453 13.09595703 167.14689453 13.09595703 167.10546875 15.04296875 C167.07066406 16.01878906 167.03585938 16.99460937 167 18 C170.14882091 17.34210372 170.14882091 17.34210372 171.09765625 14.8203125 C171.41605469 13.93085937 171.73445312 13.04140625 172.0625 12.125 C173.18204353 9.04063509 174.16262419 6.75606371 176 4 C176.99 4.33 177.98 4.66 179 5 C179.66015625 6.9609375 179.66015625 6.9609375 180.0625 9.375 C180.63170911 12.70351803 181.05951616 14.08927425 183 17 C186.85804762 17.6137803 188.65401921 17.19770331 192.0625 15.25 C194.73596193 13.20224193 197.37034828 11.10372138 200 9 C200 23.19 200 37.38 200 52 C121.13 52 42.26 52 -39 52 C-36.03 47.545 -36.03 47.545 -33 43 C-32.20146384 39.20778218 -32.20146384 39.20778218 -32.1875 35.5 C-31.5070779 28.4264453 -29.60277744 25.35977098 -24.25390625 20.80078125 C-23.51011719 20.20652344 -22.76632813 19.61226562 -22 19 C-21.02644503 18.03596635 -20.06464445 17.05961506 -19.125 16.0625 C-17 14 -17 14 -14 12 C-13.01 17.61 -12.02 23.22 -11 29 C-10.34 29 -9.68 29 -9 29 C-8.79636841 28.04746338 -8.79636841 28.04746338 -8.58862305 27.07568359 C-7.96326635 24.17358392 -7.3255021 21.27434477 -6.6875 18.375 C-6.47416016 17.37597656 -6.26082031 16.37695312 -6.04101562 15.34765625 C-3.38763298 3.38763298 -3.38763298 3.38763298 0 0 Z " fill="#FDFDFE" transform="translate(65,62)"/>
  <path d="M0 0 C1.15628906 -0.07347656 1.15628906 -0.07347656 2.3359375 -0.1484375 C4.625 0.375 4.625 0.375 6.87890625 2.3984375 C9.05263274 6.10398468 9.2729347 9.19104695 9.1875 13.375 C9.17323975 14.49950562 9.17323975 14.49950562 9.15869141 15.64672852 C8.74226198 26.95892544 3.65700757 38.59094993 -3.87890625 47.06640625 C-7.14129579 50.05622016 -10.0062623 51.06294731 -14.375 51.375 C-15.1875 49.75 -15.1875 49.75 -15.375 47.375 C-13.90681864 45.12890165 -12.21647142 43.35121323 -10.375 41.375 C-9.055 42.035 -7.735 42.695 -6.375 43.375 C-0.17282765 33.84432849 4.7240205 23.82311856 4.8125 12.25 C4.82667969 11.40179688 4.84085938 10.55359375 4.85546875 9.6796875 C4.77933683 7.09825376 4.77933683 7.09825376 2.625 4.375 C-3.24335337 4.49725736 -6.18113278 6.21988819 -10.40625 10.25 C-16.02027472 16.30958224 -19.95460567 23.18437551 -23.6875 30.5 C-24.02523438 31.15669678 -24.36296875 31.81339355 -24.7109375 32.48999023 C-28.9306606 41.04154953 -31.43646489 51.01460188 -28.79296875 60.453125 C-25.3812656 67.37000262 -17.86257533 71.42839407 -11.625 75.5 C-8.06656649 77.83074279 -5.15368308 80.14814223 -2.375 83.375 C-2.375 84.035 -2.375 84.695 -2.375 85.375 C8.65959638 77.74701901 8.65959638 77.74701901 15.203125 66.71875 C15.46597301 64.25627919 15.61503905 61.85029566 15.625 59.375 C14.965 59.375 14.305 59.375 13.625 59.375 C13.78564941 58.79951416 13.94629883 58.22402832 14.11181641 57.63110352 C14.60882567 55.44610705 14.77953177 53.51261473 14.8359375 51.27734375 C14.86220215 50.48473145 14.8884668 49.69211914 14.91552734 48.87548828 C14.94340332 48.02970215 14.9712793 47.18391602 15 46.3125 C15.30180322 39.14170823 15.90950293 32.0952303 17 25 C17.1139209 24.22261475 17.2278418 23.44522949 17.34521484 22.64428711 C18.0912575 18.09482136 19.21080446 14.38023026 21.625 10.375 C23.8125 9 23.8125 9 25.625 8.375 C29.7242278 12.76780645 29.15601468 17.48206543 28.98046875 23.15625 C28.41366338 31.96321857 25.89787458 40.57271524 22.375 48.625 C19.20162556 56.67000004 20.32570621 65.88669552 20.625 74.375 C20.89437378 73.47986694 20.89437378 73.47986694 21.16918945 72.56665039 C22.55724638 68.15165292 23.84253043 64.4424628 26.8125 60.8125 C27.34230469 60.15121094 27.87210938 59.48992188 28.41796875 58.80859375 C28.81628906 58.33550781 29.21460938 57.86242188 29.625 57.375 C35.07745399 57.85966258 35.07745399 57.85966258 37.21875 59.875 C39.24103352 63.4701707 39.69872283 67.08010783 40.3125 71.125 C40.44205078 71.91777344 40.57160156 72.71054688 40.70507812 73.52734375 C41.02185595 75.47494074 41.32480217 77.42477861 41.625 79.375 C47.86330847 76.82847667 50.9377251 70.26280664 53.5 64.3125 C54.056875 62.8584375 54.056875 62.8584375 54.625 61.375 C55.945 61.375 57.265 61.375 58.625 61.375 C58.295 65.995 57.965 70.615 57.625 75.375 C59.275 75.045 60.925 74.715 62.625 74.375 C64.52872129 71.34314757 65.59168681 68.48534993 66.625 65.0625 C66.955 64.175625 67.285 63.28875 67.625 62.375 C68.615 62.045 69.605 61.715 70.625 61.375 C70.625 66.985 70.625 72.595 70.625 78.375 C78.15662598 74.60918701 80.32512026 65.27749452 82.95629883 57.62841797 C84.92962642 51.28755341 85.5049086 44.8597888 85.9050293 38.25244141 C86.24135071 33.27965362 86.99987939 29.75256599 89.625 25.375 C90.945 25.375 92.265 25.375 93.625 25.375 C94.04833998 31.30175975 93.28129575 35.90961327 91.625 41.625 C88.84225665 51.43632192 89.24157495 61.26437645 89.625 71.375 C90.32689453 69.70244141 90.32689453 69.70244141 91.04296875 67.99609375 C93.29464286 62.8422619 93.29464286 62.8422619 95.625 61.375 C98.6875 61 98.6875 61 101.625 61.375 C103.730184 64.532776 103.87789344 65.32897134 103.8125 68.9375 C103.80283203 70.11505859 103.80283203 70.11505859 103.79296875 71.31640625 C103.625 73.375 103.625 73.375 102.625 75.375 C104.438492 74.23073734 106.25076725 73.08454608 108.0625 71.9375 C109.07183594 71.29941406 110.08117187 70.66132812 111.12109375 70.00390625 C113.47053835 68.59850458 113.47053835 68.59850458 114.625 67.375 C114.85575082 66.02752916 115.03653063 64.67122435 115.1875 63.3125 C115.4040625 61.3634375 115.4040625 61.3634375 115.625 59.375 C114.635 59.375 113.645 59.375 112.625 59.375 C112.955 58.385 113.285 57.395 113.625 56.375 C113.8074408 54.48775523 113.94434722 52.59595423 114.0546875 50.703125 C114.16176025 49.00385864 114.16176025 49.00385864 114.27099609 47.27026367 C114.34656738 46.06732666 114.42213867 44.86438965 114.5 43.625 C116.34422338 17.02076041 116.34422338 17.02076041 122.625 8.375 C124.5625 8.75 124.5625 8.75 126.625 9.375 C130.46124839 17.04749679 127.64246786 29.92116172 125.875 37.9375 C125.71813721 38.66195312 125.56127441 39.38640625 125.3996582 40.1328125 C124.49811038 43.88947798 123.32627838 47.11150017 121.50390625 50.5234375 C119.7008084 53.95151307 119.15912044 56.50780985 119.3125 60.4375 C119.34730469 61.45457031 119.38210937 62.47164062 119.41796875 63.51953125 C119.65978484 66.85476827 120.02689582 70.08542702 120.625 73.375 C120.98851562 72.27091797 120.98851562 72.27091797 121.359375 71.14453125 C124.99218078 60.5674775 124.99218078 60.5674775 128.625 57.375 C131.125 56.8125 131.125 56.8125 133.625 57.375 C137.04597458 59.75793077 137.94913743 61.96544154 138.671875 65.921875 C138.92308356 67.6538919 139.15697487 69.38849393 139.375 71.125 C139.50003906 72.01316406 139.62507812 72.90132813 139.75390625 73.81640625 C140.05928048 76.00100654 140.34905579 78.18652082 140.625 80.375 C145.07787495 76.84190941 148.48717797 73.60305511 151.375 68.625 C154.32947761 63.57201493 154.32947761 63.57201493 157.625 61.375 C162.97045455 61.04772727 162.97045455 61.04772727 165.625 62.375 C165.625 63.365 165.625 64.355 165.625 65.375 C163.315 65.375 161.005 65.375 158.625 65.375 C157.965 66.4475 157.305 67.52 156.625 68.625 C156.25375 69.22828125 155.8825 69.8315625 155.5 70.453125 C154.34875977 72.62979385 154.34875977 72.62979385 154.625 76.375 C157.595 73.075 160.565 69.775 163.625 66.375 C164.285 66.705 164.945 67.035 165.625 67.375 C166.0390625 69.87890625 166.0390625 69.87890625 166.25 72.9375 C166.36214844 74.45537109 166.36214844 74.45537109 166.4765625 76.00390625 C166.55003906 77.17759766 166.55003906 77.17759766 166.625 78.375 C169.81736524 78.7148504 171.18875595 78.70591666 173.79296875 76.73046875 C174.45941406 76.01503906 175.12585938 75.29960938 175.8125 74.5625 C176.48667969 73.85480469 177.16085938 73.14710937 177.85546875 72.41796875 C180.86425367 68.94425017 181.89788417 66.70631979 182.25 62.1875 C182.32476562 61.28644531 182.39953125 60.38539062 182.4765625 59.45703125 C182.55003906 58.42642578 182.55003906 58.42642578 182.625 57.375 C183.945 57.045 185.265 56.715 186.625 56.375 C186.625 60.995 186.625 65.615 186.625 70.375 C187.40875 68.76625 188.1925 67.1575 189 65.5 C190.38131642 62.66466629 191.38925178 60.61074822 193.625 58.375 C196.0625 58.3125 196.0625 58.3125 198.625 59.375 C200.4375 62.9375 200.4375 62.9375 201.625 66.375 C202.73875 65.1375 202.73875 65.1375 203.875 63.875 C206.625 61.375 206.625 61.375 210.625 61.375 C213.37885216 66.25682883 214.59637215 70.92932314 215.625 76.375 C219.61570321 74.29983433 222.8138331 72.37978379 225.9375 69.125 C226.824375 68.2175 227.71125 67.31 228.625 66.375 C229.285 66.375 229.945 66.375 230.625 66.375 C230.14196726 70.68513828 229.0232201 72.3985163 225.6875 75.125 C224.62208984 76.01445312 224.62208984 76.01445312 223.53515625 76.921875 C220.15478754 79.49344384 217.86685851 79.80784271 213.625 79.375 C209.81385671 76.24441801 209.46459618 70.99771777 208.625 66.375 C207.965 66.375 207.305 66.375 206.625 66.375 C204.44173892 70.64613698 202.31173918 74.87702887 200.625 79.375 C199.635 79.375 198.645 79.375 197.625 79.375 C197.57601562 78.38757813 197.52703125 77.40015625 197.4765625 76.3828125 C197.36441406 74.46082031 197.36441406 74.46082031 197.25 72.5 C197.14558594 70.58574219 197.14558594 70.58574219 197.0390625 68.6328125 C196.95258894 65.29438301 196.95258894 65.29438301 194.625 63.375 C191.66084181 70.2991798 188.89935204 77.19283567 186.625 84.375 C185.635 84.375 184.645 84.375 183.625 84.375 C182.965 81.075 182.305 77.775 181.625 74.375 C181.109375 75.1175 180.59375 75.86 180.0625 76.625 C176.63251803 80.49472324 173.11849953 82.97830689 167.875 83.8125 C165.11987532 83.27678131 164.29706588 82.60442117 162.625 80.375 C161.4375 78.1875 161.4375 78.1875 160.625 76.375 C159.26375 77.6434375 159.26375 77.6434375 157.875 78.9375 C154.95183881 81.38383348 154.95183881 81.38383348 152.3125 81.3125 C150.625 80.375 150.625 80.375 149.625 78.375 C148.92375 79.2 148.2225 80.025 147.5 80.875 C144.625 83.375 144.625 83.375 141.3125 83.6875 C140.425625 83.584375 139.53875 83.48125 138.625 83.375 C135.93037465 77.9857493 134.9066933 72.90578563 134.0546875 66.94921875 C133.7581672 64.39645886 133.7581672 64.39645886 132.625 62.375 C131.635 62.375 130.645 62.375 129.625 62.375 C126.91177956 68.04175468 125.62073057 73.52348187 124.5 79.6875 C124.16653764 81.47572375 123.83071619 83.26350969 123.4921875 85.05078125 C123.34894043 85.83364502 123.20569336 86.61650879 123.05810547 87.4230957 C122.625 89.375 122.625 89.375 121.625 91.375 C120.635 91.375 119.645 91.375 118.625 91.375 C116.8350144 85.0503842 116.08259953 78.9258985 115.625 72.375 C105.74889445 77.67265135 105.74889445 77.67265135 98.625 85.9375 C97.965 87.071875 97.305 88.20625 96.625 89.375 C93.3125 89.875 93.3125 89.875 90.625 89.375 C90.295 88.385 89.965 87.395 89.625 86.375 C94.625 81.375 94.625 81.375 96.375 79.75 C98.96350062 76.90264932 98.8859785 73.34883246 99.1875 69.6875 C99.27128906 68.69363281 99.35507813 67.69976562 99.44140625 66.67578125 C99.50199219 65.91652344 99.56257812 65.15726562 99.625 64.375 C94.68130972 68.24978427 93.69295587 71.84934903 92.49609375 77.94921875 C91.625 80.375 91.625 80.375 89.53515625 81.70703125 C88.90480469 81.92746094 88.27445312 82.14789063 87.625 82.375 C84.86797811 77.58017932 84.09171627 73.78890868 83.625 68.375 C83.32207031 69.03886719 83.01914063 69.70273438 82.70703125 70.38671875 C78.07562587 80.14829624 78.07562587 80.14829624 73.625 83.375 C71 83.5 71 83.5 68.625 82.375 C66.8125 79.8125 66.8125 79.8125 65.625 77.375 C65.068125 77.87 64.51125 78.365 63.9375 78.875 C61.13833204 80.69067651 59.89603386 81.02920677 56.625 80.375 C54.3125 77.875 54.3125 77.875 52.625 75.375 C52.09712891 76.11556641 52.09712891 76.11556641 51.55859375 76.87109375 C48.71411341 80.56223404 47.43217792 82.17971502 42.75 83.3125 C41.203125 83.3434375 41.203125 83.3434375 39.625 83.375 C36.60173923 79.0814616 35.76608879 75.1291167 34.9375 70.0625 C34.80794922 69.32193359 34.67839844 68.58136719 34.54492188 67.81835938 C34.2291294 66.00547666 33.92579417 64.19043149 33.625 62.375 C31.66773357 62.47839469 31.66773357 62.47839469 29.625 63.375 C25.38919985 71.39021779 24.22151605 81.52159282 22.625 90.375 C21.305 90.375 19.985 90.375 18.625 90.375 C17.635 85.095 16.645 79.815 15.625 74.375 C13.975 76.355 12.325 78.335 10.625 80.375 C9.26257203 81.66132839 7.86987181 82.91704234 6.4375 84.125 C1.62154231 88.21349945 0.32006467 90.3057725 -0.25 96.625 C-0.78487068 102.38339503 -1.79119301 105.79936451 -5.375 110.375 C-5.79031982 110.91970947 -6.20563965 111.46441895 -6.63354492 112.02563477 C-9.18859367 114.00541248 -11.15907934 113.71474518 -14.35546875 113.66796875 C-15.51884766 113.65830078 -16.68222656 113.64863281 -17.88085938 113.63867188 C-19.70327148 113.6009668 -19.70327148 113.6009668 -21.5625 113.5625 C-22.78904297 113.54896484 -24.01558594 113.53542969 -25.27929688 113.52148438 C-28.31163664 113.48608741 -31.34309996 113.4367076 -34.375 113.375 C-34.51518673 104.78535762 -34.62121234 96.19620802 -34.68587303 87.60569763 C-34.71693682 83.61497044 -34.75893854 79.62503646 -34.82763672 75.63476562 C-34.8937393 71.77023754 -34.92889254 67.90646296 -34.94426346 64.04141235 C-34.95518984 62.58082237 -34.97651655 61.12026475 -35.00938034 59.66000366 C-35.44046413 39.67591416 -26.73184819 22.11991281 -13.375 7.375 C-9.19405946 3.34981999 -5.93618949 0.25638028 0 0 Z " fill="#3941D1" transform="translate(34.375,0.625)"/>
  <path d="M0 0 C1.06171807 1.5925771 2.12051132 3.18728111 3.15625 4.796875 C6.59689951 9.79781906 10.35024096 12.9346525 15.39453125 16.26953125 C18.01022202 18.00678914 20.51009184 19.83746185 23 21.75 C23.721875 22.30171875 24.44375 22.8534375 25.1875 23.421875 C27 25 27 25 29 28 C28.7879804 31.98759949 26.42868835 33.81981686 23.625 36.4375 C20.45577492 39.40542251 17.92407777 42.07663621 16 46 C16.17761154 51.05693194 16.17761154 51.05693194 19 55 C12.73 55 6.46 55 0 55 C0 36.85 0 18.7 0 0 Z " fill="#FDFDFE" transform="translate(0,59)"/>
  <path d="M0 0 C0.33 0 0.66 0 1 0 C1.55371287 6.64455447 -0.15924337 11.60771349 -4.46875 16.75390625 C-4.9740625 17.16511719 -5.479375 17.57632813 -6 18 C-8.6875 17.6875 -8.6875 17.6875 -11 17 C-11.43641407 13.52739087 -11.20031136 12.27491292 -9.1015625 9.39453125 C-8.28429687 8.54246094 -7.46703125 7.69039063 -6.625 6.8125 C-5.81289063 5.95269531 -5.00078125 5.09289062 -4.1640625 4.20703125 C-2.78264368 2.79818354 -1.39520067 1.39520067 0 0 Z " fill="#F4F4FC" transform="translate(30,93)"/>
  <path d="M0 0 C0.66 0 1.32 0 2 0 C3.06642174 11.44626 -0.10103666 22.02711536 -3 33 C-3.33 33 -3.66 33 -4 33 C-3.42528455 10.40510967 -3.42528455 10.40510967 0 0 Z " fill="#E3E4F8" transform="translate(157,14)"/>
  <path d="M0 0 C0.33 0 0.66 0 1 0 C1.52608086 11.12076477 0.42171567 20.36824059 -3 31 C-3.33 31 -3.66 31 -4 31 C-4.41342945 21.06238093 -4.57327968 9.14655936 0 0 Z " fill="#EBECFA" transform="translate(58,14)"/>
  <path d="M0 0 C2.31 0.33 4.62 0.66 7 1 C4.5038702 5.9922596 -0.73081511 9.52508207 -5 13 C-4.54996653 7.37458159 -3.31558515 4.38512875 0 0 Z " fill="#E7E8F9" transform="translate(193,65)"/>
</svg>
